<svg width="24" height="23" viewBox="0 0 24 23" fill="none" xmlns="http://www.w3.org/2000/svg">
<path d="M22.0151 20.1033H1.15869V10.8338L11.5869 0.984894L22.0151 10.8338V20.1033Z" fill="#E8EAF6"/>
<path d="M20.2771 9.67507L17.3804 6.77835V2.72293H20.2771V9.67507Z" fill="#C5CAE9"/>
<path d="M1.15869 20.1033H22.0151V23H1.15869V20.1033Z" fill="#C5CAE9"/>
<path d="M11.5869 0L0 10.7758L1.15869 12.0504L11.5869 2.37531L22.0151 12.0504L23.1738 10.7758L11.5869 0Z" fill="#B71C1C"/>
<path d="M8.11084 13.7305H15.063V23H8.11084V13.7305Z" fill="#D84315"/>
<path d="M9.84888 7.35767H13.3249V10.8337H9.84888V7.35767Z" fill="#01579B"/>
<path d="M13.6146 18.0756C13.4408 18.0756 13.325 18.1914 13.325 18.3652V19.5239C13.325 19.6977 13.4408 19.8136 13.6146 19.8136C13.7884 19.8136 13.9043 19.6977 13.9043 19.5239V18.3652C13.9043 18.1914 13.7884 18.0756 13.6146 18.0756Z" fill="#FF8A65"/>
</svg>
