<svg width="26" height="23" viewBox="0 0 26 23" fill="none" xmlns="http://www.w3.org/2000/svg">
<path d="M25.375 6.64583C25.375 8.40842 24.6748 10.0988 23.4285 11.3451C22.1821 12.5915 20.4918 13.2917 18.7292 13.2917C16.9666 13.2917 15.2762 12.5915 14.0299 11.3451C12.7835 10.0988 12.0833 8.40842 12.0833 6.64583C12.0833 4.88325 12.7835 3.19285 14.0299 1.94652C15.2762 0.700184 16.9666 0 18.7292 0C20.4918 0 22.1821 0.700184 23.4285 1.94652C24.6748 3.19285 25.375 4.88325 25.375 6.64583ZM16.7403 3.80142C16.6268 3.68797 16.4729 3.62424 16.3125 3.62424C16.1521 3.62424 15.9982 3.68797 15.8848 3.80142C15.7713 3.91486 15.7076 4.06873 15.7076 4.22917C15.7076 4.3896 15.7713 4.54347 15.8848 4.65692L17.8749 6.64583L15.8848 8.63475C15.7713 8.7482 15.7076 8.90206 15.7076 9.0625C15.7076 9.22294 15.7713 9.3768 15.8848 9.49025C15.9982 9.6037 16.1521 9.66743 16.3125 9.66743C16.4729 9.66743 16.6268 9.6037 16.7403 9.49025L18.7292 7.50012L20.7181 9.49025C20.8315 9.6037 20.9854 9.66743 21.1458 9.66743C21.3063 9.66743 21.4601 9.6037 21.5736 9.49025C21.687 9.3768 21.7508 9.22294 21.7508 9.0625C21.7508 8.90206 21.687 8.7482 21.5736 8.63475L19.5835 6.64583L21.5736 4.65692C21.687 4.54347 21.7508 4.3896 21.7508 4.22917C21.7508 4.06873 21.687 3.91486 21.5736 3.80142C21.4601 3.68797 21.3063 3.62424 21.1458 3.62424C20.9854 3.62424 20.8315 3.68797 20.7181 3.80142L18.7292 5.79154L16.7403 3.80142ZM22.3542 19.0312V13.6155C23.0171 13.2695 23.6274 12.831 24.1667 12.3129V19.0312C24.1667 20.0343 23.783 20.9994 23.0941 21.7285C22.4052 22.4576 21.4634 22.8955 20.4619 22.9523L20.2396 22.9583H3.92708C2.924 22.9584 1.95892 22.5746 1.2298 21.8857C0.500693 21.1968 0.0628317 20.2551 0.00604181 19.2536L8.42835e-09 19.0312V7.55208C-6.5669e-05 6.549 0.383711 5.58392 1.0726 4.8548C1.7615 4.12569 2.70328 3.68783 3.70475 3.63104L3.92708 3.625H11.4768C11.2342 4.20634 11.0629 4.81495 10.9668 5.4375H3.92708C3.3964 5.43752 2.88512 5.63708 2.49474 5.99657C2.10436 6.35606 1.86342 6.84919 1.81975 7.37808L1.8125 7.55208V8.07046L12.0833 13.4753L13.6602 12.6452C14.1907 13.0935 14.7803 13.4729 15.4171 13.769L12.505 15.3023C12.3939 15.3607 12.2719 15.3954 12.1467 15.4041C12.0214 15.4128 11.8958 15.3955 11.7776 15.3531L11.6616 15.3023L1.8125 10.1186V19.0312C1.81252 19.5619 2.01208 20.0732 2.37157 20.4636C2.73106 20.854 3.2242 21.0949 3.75308 21.1386L3.92708 21.1458H20.2396C20.7705 21.1458 21.2819 20.9461 21.6723 20.5863C22.0627 20.2266 22.3035 19.7331 22.3469 19.204L22.3542 19.0312Z" fill="#B71C1C"/>
</svg>
