<svg width="28" height="23" viewBox="0 0 28 23" fill="none" xmlns="http://www.w3.org/2000/svg">
<path d="M9.80038 11.4997C12.8936 11.4997 15.4006 8.92577 15.4006 5.74986C15.4006 2.57396 12.8936 0 9.80038 0C6.70714 0 4.20016 2.57396 4.20016 5.74986C4.20016 8.92577 6.70714 11.4997 9.80038 11.4997ZM13.7205 12.9372H12.9899C12.0186 13.3954 10.9379 13.6559 9.80038 13.6559C8.66284 13.6559 7.58655 13.3954 6.61088 12.9372H5.88023C2.63385 12.9372 0 15.6414 0 18.9746V20.8433C0 22.0337 0.940662 22.9995 2.10008 22.9995H14.1274C14.0224 22.694 13.9787 22.3706 14.0137 22.0426L14.3112 19.307L14.3637 18.8083L14.7093 18.4535L18.0913 14.9811C17.0194 13.7368 15.4662 12.9372 13.7205 12.9372ZM15.7025 19.4642L15.405 22.2044C15.3568 22.6625 15.7331 23.0489 16.175 22.995L18.8395 22.6895L24.8728 16.4949L21.7358 13.2741L15.7025 19.4642ZM27.6948 12.0792L26.0366 10.3767C25.6297 9.95894 24.9647 9.95894 24.5578 10.3767L22.904 12.0747L22.7246 12.2589L25.866 15.4797L27.6948 13.602C28.1017 13.1798 28.1017 12.5015 27.6948 12.0792Z" fill="url(#paint0_linear)"/>
<defs>
<linearGradient id="paint0_linear" x1="14" y1="0" x2="14" y2="23" gradientUnits="userSpaceOnUse">
<stop stop-color="#B13AFA"/>
<stop offset="1" stop-color="#FF4E4E"/>
</linearGradient>
</defs>
</svg>
